<svg xmlns="http://www.w3.org/2000/svg" xmlns:xlink="http://www.w3.org/1999/xlink" width="500" zoomAndPan="magnify" viewBox="0 0 375 374.999991" height="500" preserveAspectRatio="xMidYMid meet" version="1.0">
  <defs>
    <g/>
    <clipPath id="ede279c462">
      <path d="M 32.359375 32.359375 L 342.859375 32.359375 L 342.859375 342.859375 L 32.359375 342.859375 Z M 32.359375 32.359375 " clip-rule="nonzero"/>
    </clipPath>
    <clipPath id="97dc71faa5">
      <path d="M 136.414062 169.820312 L 161.632812 169.820312 L 161.632812 194.5625 L 136.414062 194.5625 Z M 136.414062 169.820312 " clip-rule="nonzero"/>
    </clipPath>
    <clipPath id="ac79288a9d">
      <path d="M 139.199219 192.300781 C 141.898438 183.75 144.074219 180.226562 145.949219 177.601562 C 147.675781 175.199219 149.773438 172.574219 151.425781 171.300781 C 152.398438 170.550781 153.226562 170.023438 154.199219 169.949219 C 155.175781 169.800781 156.523438 170.023438 157.273438 170.625 C 157.949219 171.148438 158.25 172.273438 158.398438 173.175781 C 158.550781 174.226562 158.398438 175.199219 157.949219 176.324219 C 157.425781 177.898438 156.148438 179.773438 155.101562 181.351562 C 154.050781 182.851562 153.226562 184.050781 151.800781 185.625 C 149.851562 187.800781 146.398438 191.324219 144 192.75 C 142.351562 193.800781 140.625 194.625 139.351562 194.476562 C 138.523438 194.324219 137.773438 193.648438 137.25 193.050781 C 136.800781 192.449219 136.425781 191.625 136.425781 190.648438 C 136.5 189.375 137.175781 187.648438 138.148438 185.925781 C 139.574219 183.375 142.574219 179.925781 145.050781 177.449219 C 147.375 175.125 150.675781 171.824219 152.550781 171.375 C 153.523438 171.148438 154.351562 171.449219 154.875 171.824219 C 155.398438 172.199219 155.699219 172.574219 155.773438 173.398438 C 156.148438 175.273438 154.800781 181.726562 153.675781 183.675781 C 153.074219 184.726562 152.398438 185.550781 151.574219 185.699219 C 150.75 185.851562 149.324219 185.175781 148.875 184.5 C 148.5 183.898438 148.351562 182.699219 148.726562 182.101562 C 149.175781 181.351562 151.125 181.273438 151.574219 180.601562 C 152.023438 179.925781 151.351562 179.101562 151.648438 178.199219 C 152.25 176.550781 154.5 173.101562 156 171.898438 C 156.898438 171.148438 158.023438 170.699219 158.851562 170.699219 C 159.449219 170.625 160.125 171 160.574219 171.375 C 160.949219 171.75 161.324219 172.425781 161.324219 173.023438 C 161.398438 173.625 161.175781 174.375 160.875 174.824219 C 160.5 175.273438 159.375 175.875 159.300781 175.800781 C 159.226562 175.726562 161.023438 173.175781 161.398438 173.324219 C 161.699219 173.476562 161.550781 175.199219 161.398438 176.324219 C 161.175781 177.824219 160.726562 181.050781 159.75 181.574219 C 159.148438 181.875 157.726562 180.675781 157.5 180.976562 C 157.199219 181.425781 160.875 184.574219 160.875 185.851562 C 160.800781 186.601562 159.976562 187.5 159.375 187.800781 C 158.699219 188.101562 157.5 188.023438 156.898438 187.648438 C 156.226562 187.125 155.550781 185.476562 155.773438 184.648438 C 155.851562 183.976562 156.75 183.148438 157.425781 182.925781 C 158.101562 182.699219 159.300781 182.851562 159.824219 183.300781 C 160.5 183.898438 160.949219 185.550781 160.726562 186.375 C 160.5 187.050781 159.523438 187.800781 158.773438 187.949219 C 158.101562 188.101562 157.125 187.875 156.449219 187.273438 C 155.324219 186.226562 154.273438 182.699219 154.351562 180.675781 C 154.425781 179.101562 155.925781 177.601562 156.226562 176.324219 C 156.375 175.425781 155.925781 174.675781 156.226562 173.851562 C 156.601562 172.726562 157.949219 170.851562 158.851562 170.699219 C 159.523438 170.550781 160.574219 171.226562 160.949219 171.824219 C 161.324219 172.574219 161.25 174.148438 160.875 174.824219 C 160.574219 175.351562 159.898438 175.199219 159.300781 175.800781 C 157.949219 177.148438 155.773438 182.175781 154.125 183.898438 C 153.148438 184.875 151.199219 185.773438 151.199219 185.773438 C 151.199219 185.773438 153.375 184.125 153.449219 184.199219 C 153.523438 184.273438 153.074219 184.949219 152.699219 185.175781 C 152.175781 185.476562 150.976562 185.773438 150.375 185.625 C 149.773438 185.476562 149.175781 185.023438 148.875 184.5 C 148.574219 183.976562 148.574219 183.449219 148.574219 182.699219 C 148.574219 181.199219 149.398438 178.351562 149.925781 176.476562 C 150.375 174.824219 150.898438 172.726562 151.5 171.976562 C 151.875 171.601562 152.101562 171.375 152.550781 171.375 C 153.300781 171.300781 154.875 171.601562 155.324219 172.273438 C 155.773438 172.875 155.925781 174.148438 155.476562 175.125 C 154.648438 176.925781 150.824219 178.726562 148.726562 180.898438 C 146.550781 183.074219 144.300781 186.824219 142.648438 188.175781 C 141.898438 188.773438 140.699219 189.300781 140.625 189.226562 C 140.476562 189 145.875 184.648438 148.273438 182.175781 C 150.523438 179.773438 154.648438 174.601562 154.648438 174.601562 C 154.648438 174.601562 149.476562 180.449219 147.675781 183 C 146.324219 184.875 145.351562 186.449219 144.449219 188.324219 C 143.625 190.199219 143.476562 193.273438 142.425781 194.101562 C 141.824219 194.550781 140.773438 194.625 140.175781 194.324219 C 139.648438 194.023438 139.199219 192.300781 139.199219 192.300781 " clip-rule="nonzero"/>
    </clipPath>
    <clipPath id="9c6d82db01">
      <path d="M 145.09375 252.34375 L 148.300781 252.34375 L 148.300781 255.0625 L 145.09375 255.0625 Z M 145.09375 252.34375 " clip-rule="nonzero"/>
    </clipPath>
    <clipPath id="128d224adc">
      <path d="M 148.273438 253.273438 C 146.851562 255.601562 145.5 255.148438 145.199219 254.699219 C 144.976562 254.175781 145.199219 252.824219 145.648438 252.449219 C 146.101562 252.148438 147.898438 252.601562 147.898438 252.601562 " clip-rule="nonzero"/>
    </clipPath>
    <clipPath id="bbddb9e1a3">
      <path d="M 137.207031 171.15625 L 173.367188 171.15625 L 173.367188 229.828125 L 137.207031 229.828125 Z M 137.207031 171.15625 " clip-rule="nonzero"/>
    </clipPath>
    <clipPath id="986ee436d7">
      <path d="M 151.726562 225.226562 C 148.726562 219.375 148.726562 218.101562 148.949219 216 C 149.25 212.101562 151.199219 203.925781 152.625 199.425781 C 153.675781 196.125 154.648438 194.023438 156 191.175781 C 157.574219 188.023438 159.898438 183.898438 161.625 181.425781 C 162.898438 179.773438 163.949219 178.273438 165.148438 177.449219 C 166.050781 176.851562 167.101562 176.175781 167.925781 176.476562 C 168.976562 176.773438 170.25 178.648438 170.476562 180.226562 C 170.851562 182.324219 169.425781 185.101562 168.375 188.101562 C 166.875 192.523438 164.25 198.824219 161.476562 204 C 158.550781 209.398438 154.425781 215.476562 151.050781 219.75 C 148.425781 222.976562 145.273438 226.425781 143.324219 227.773438 C 142.425781 228.375 141.898438 228.75 141.074219 228.75 C 140.175781 228.824219 138.675781 228.449219 138 227.699219 C 137.175781 226.726562 137.175781 224.625 137.25 222.824219 C 137.398438 220.351562 138.226562 217.5 139.351562 214.199219 C 141.148438 209.398438 144.523438 202.5 147.675781 196.949219 C 150.824219 191.476562 154.875 185.625 158.324219 181.351562 C 161.101562 177.898438 164.699219 174.375 166.574219 172.800781 C 167.398438 172.125 167.773438 171.675781 168.601562 171.523438 C 169.574219 171.226562 171.601562 171 172.351562 171.75 C 173.324219 172.574219 173.324219 175.125 173.324219 176.773438 C 173.324219 178.351562 173.023438 179.476562 172.5 181.425781 C 171.523438 185.023438 169.425781 191.476562 167.398438 196.574219 C 165.226562 201.898438 162.300781 207.976562 159.75 212.550781 C 157.726562 216.148438 156.074219 219.074219 153.75 221.851562 C 151.5 224.699219 148.5 228.675781 146.023438 229.5 C 144.523438 230.101562 142.351562 229.800781 141.601562 229.125 C 141 228.601562 141.148438 227.625 141.148438 226.574219 C 141.148438 224.699219 141.675781 221.925781 142.351562 219.074219 C 143.324219 215.25 144.898438 210.675781 146.773438 205.800781 C 149.25 199.574219 153.375 189.976562 156.226562 185.101562 C 157.949219 182.175781 159.449219 179.476562 161.023438 178.5 C 161.925781 177.976562 162.898438 177.75 163.648438 178.050781 C 164.625 178.425781 165.601562 179.851562 166.050781 180.976562 C 166.574219 182.175781 166.5 183.148438 166.425781 184.949219 C 166.351562 188.550781 165.148438 196.050781 164.101562 201.375 C 163.050781 206.550781 161.550781 213.675781 159.976562 216.375 C 159.300781 217.5 158.625 218.175781 157.726562 218.476562 C 156.75 218.851562 155.175781 218.851562 154.425781 218.324219 C 153.449219 217.648438 153 215.699219 152.699219 214.125 C 152.324219 212.175781 152.699219 209.925781 153 207.449219 C 153.300781 204.449219 153.523438 198.976562 154.648438 197.324219 C 155.175781 196.648438 155.925781 196.351562 156.601562 196.273438 C 157.199219 196.273438 158.175781 196.800781 158.550781 197.324219 C 158.851562 197.851562 159 198.898438 158.773438 199.5 C 158.550781 200.101562 157.800781 200.773438 157.125 200.925781 C 156.523438 201.074219 155.476562 200.773438 155.023438 200.324219 C 154.574219 199.949219 154.273438 198.898438 154.273438 198.300781 C 154.351562 197.773438 154.574219 197.25 154.949219 196.949219 C 155.476562 196.574219 156.449219 196.199219 157.050781 196.351562 C 157.800781 196.574219 158.625 197.324219 158.925781 198.449219 C 159.675781 200.851562 158.101562 208.425781 157.273438 211.273438 C 156.824219 212.773438 155.550781 214.574219 155.699219 214.648438 C 155.773438 214.648438 156.601562 213.75 157.050781 212.773438 C 158.175781 210.601562 159.300781 205.050781 160.125 200.699219 C 161.023438 195.898438 161.175781 188.324219 162.148438 185.023438 C 162.601562 183.449219 163.726562 181.726562 163.648438 181.648438 C 163.425781 181.574219 159.601562 187.050781 157.648438 190.574219 C 155.101562 195.148438 152.398438 201.976562 150.449219 207.226562 C 148.800781 211.726562 147.449219 216.148438 146.625 219.898438 C 145.949219 222.75 146.324219 227.324219 145.5 227.625 C 144.976562 227.773438 143.625 226.800781 143.625 226.050781 C 143.625 224.625 148.648438 222 150.75 219.523438 C 152.925781 216.976562 154.425781 214.273438 156.226562 210.898438 C 158.625 206.550781 161.476562 200.773438 163.574219 195.226562 C 165.824219 189.226562 170.324219 176.925781 169.050781 176.175781 C 167.925781 175.574219 161.175781 183.976562 158.101562 187.949219 C 155.324219 191.550781 153.226562 195.074219 151.125 198.824219 C 148.949219 202.574219 146.925781 206.476562 145.351562 210.449219 C 143.773438 214.425781 142.875 220.5 141.75 222.824219 C 141.300781 223.800781 140.25 224.699219 140.324219 224.699219 C 140.476562 224.851562 145.5 220.425781 148.050781 217.351562 C 151.351562 213.375 154.875 208.050781 157.800781 202.425781 C 161.101562 195.824219 163.949219 180.898438 166.351562 179.851562 C 167.101562 179.476562 168.300781 180.074219 168.449219 180.675781 C 168.824219 182.023438 163.726562 186.300781 161.851562 189.523438 C 159.824219 192.898438 158.101562 196.574219 156.75 200.699219 C 155.175781 205.351562 153.601562 212.25 153.300781 216 C 153.074219 218.175781 153.226562 219.675781 153.601562 221.175781 C 153.898438 222.449219 155.398438 223.726562 155.175781 224.550781 C 155.023438 225.226562 154.050781 225.898438 153.449219 225.976562 C 152.925781 226.050781 151.726562 225.226562 151.726562 225.226562 " clip-rule="nonzero"/>
    </clipPath>
    <clipPath id="6f97c94b45">
      <path d="M 114.011719 140.5625 L 264.339844 140.5625 L 264.339844 231.359375 L 114.011719 231.359375 Z M 114.011719 140.5625 " clip-rule="nonzero"/>
    </clipPath>
    <clipPath id="13fc28d287">
      <path d="M 114.375 185.699219 C 115.726562 182.023438 114.601562 180.75 114.898438 179.023438 C 115.5 175.5 119.550781 167.175781 122.699219 164.101562 C 124.800781 162 128.324219 161.851562 129.898438 160.574219 C 130.875 159.75 131.101562 158.398438 131.851562 157.949219 C 132.523438 157.5 133.574219 157.800781 134.101562 157.5 C 134.550781 157.199219 134.476562 156.898438 135.074219 156.449219 C 137.023438 155.023438 144.523438 150.523438 149.925781 149.324219 C 155.699219 148.050781 165.898438 148.574219 168.675781 149.25 C 169.5 149.476562 169.726562 150.148438 170.25 150.074219 C 170.699219 150 170.699219 149.25 171.449219 148.800781 C 173.699219 147.148438 184.726562 141.523438 188.25 141.148438 C 189.75 141 190.949219 142.050781 191.625 141.976562 C 192 141.898438 192 141.75 192.300781 141.601562 C 192.976562 141.375 194.324219 141 195.375 140.925781 C 196.425781 140.773438 197.550781 140.773438 198.601562 140.925781 C 199.574219 141.074219 200.625 141.300781 201.675781 141.675781 C 202.648438 142.050781 203.550781 142.574219 204.449219 143.175781 C 205.273438 143.773438 206.476562 144.898438 206.773438 145.273438 C 206.851562 145.425781 206.851562 145.5 206.925781 145.574219 C 207.375 145.875 210 145.875 210.976562 146.476562 C 211.800781 147 211.875 147.976562 212.851562 148.648438 C 214.648438 149.925781 220.726562 152.101562 221.625 152.25 C 221.773438 152.25 221.773438 152.25 221.925781 152.175781 C 222.300781 151.949219 222.449219 150.148438 223.574219 149.175781 C 225.898438 147 233.398438 142.351562 238.273438 142.949219 C 243.675781 143.625 249.898438 150.449219 254.175781 155.101562 C 258.148438 159.375 262.425781 164.324219 263.550781 169.5 C 264.601562 174.449219 260.476562 182.851562 261 185.324219 C 261.226562 186.148438 262.050781 186.824219 262.050781 186.898438 C 262.050781 186.898438 262.648438 188.324219 262.875 189.074219 C 263.175781 189.824219 263.699219 191.25 263.699219 191.25 C 263.699219 191.25 263.925781 192.824219 264 193.574219 C 264.074219 194.324219 264.300781 195.898438 264.300781 195.898438 C 264.226562 196.125 263.398438 202.800781 263.023438 203.851562 C 262.949219 204.074219 262.875 204.074219 262.726562 204.300781 C 262.351562 205.273438 262.425781 208.875 261.375 211.574219 C 259.875 215.476562 254.773438 223.648438 253.125 225.074219 C 252.675781 225.449219 252.148438 225.449219 252.074219 225.523438 C 252 225.601562 252 225.601562 252 225.601562 C 251.773438 225.824219 248.773438 228.375 246.898438 229.273438 C 245.023438 230.175781 242.25 230.925781 240.898438 231.074219 C 240.226562 231.226562 239.699219 231 239.324219 231.074219 C 239.101562 231.074219 239.023438 231.226562 238.800781 231.300781 C 238.351562 231.375 237.449219 231.074219 236.699219 231 C 236.023438 230.925781 235.199219 231.074219 234.601562 230.925781 C 234.226562 230.851562 234 230.699219 233.625 230.550781 C 233.324219 230.476562 232.949219 230.550781 232.574219 230.476562 C 232.050781 230.25 231.375 229.800781 230.699219 229.5 C 230.023438 229.199219 229.199219 229.050781 228.75 228.75 C 228.375 228.601562 228.226562 228.300781 227.925781 228.148438 C 227.625 227.925781 227.25 227.925781 226.949219 227.625 C 226.5 227.324219 225.976562 226.648438 225.449219 226.199219 C 224.925781 225.675781 224.175781 225.300781 223.800781 224.851562 C 223.574219 224.550781 223.5 224.25 223.273438 223.949219 C 223.050781 223.726562 222.75 223.5 222.523438 223.199219 C 222.300781 222.898438 222.226562 222.074219 221.925781 222.074219 C 221.476562 222 221.101562 223.875 219.824219 224.324219 C 216.300781 225.601562 199.949219 223.648438 196.199219 221.398438 C 194.625 220.5 195 218.101562 193.726562 217.875 C 191.625 217.5 187.949219 223.050781 183.824219 224.398438 C 178.273438 226.273438 163.875 225.976562 162.601562 225.601562 C 162.449219 225.601562 162.449219 225.449219 162.375 225.523438 C 162.226562 225.523438 162.148438 226.125 161.699219 226.425781 C 159.75 227.550781 150.226562 230.398438 145.050781 229.574219 C 139.875 228.824219 134.550781 225.375 130.5 221.773438 C 126.449219 218.101562 121.726562 209.925781 120.75 207.824219 C 120.523438 207.226562 120.675781 206.925781 120.449219 206.699219 C 120.300781 206.550781 120 206.699219 119.851562 206.476562 C 119.25 205.875 118.648438 201.675781 118.5 201.375 C 118.5 201.300781 118.425781 201.300781 118.425781 201.300781 C 118.425781 201.226562 118.425781 201.148438 118.351562 200.925781 C 118.125 199.648438 114.375 185.699219 114.375 185.699219 " clip-rule="nonzero"/>
    </clipPath>
    <clipPath id="a40d572a01">
      <path d="M 86.730469 93.179688 L 143.894531 93.179688 L 143.894531 279.203125 L 86.730469 279.203125 Z M 86.730469 93.179688 " clip-rule="nonzero"/>
    </clipPath>
    <clipPath id="c85d69dadf">
      <path d="M 86.773438 243 C 88.5 221.175781 87.675781 216 87.375 210.675781 C 87.148438 205.351562 87 199.949219 86.925781 194.476562 C 86.851562 188.925781 87 177.75 87 177.675781 C 87 177.601562 87.148438 176.175781 87.300781 175.425781 C 87.375 174.675781 87.523438 173.175781 87.523438 173.175781 C 87.523438 173.101562 88.050781 171.75 88.351562 171 C 88.574219 170.324219 89.101562 168.898438 89.175781 168.898438 C 89.175781 168.898438 89.476562 168.601562 89.625 168.226562 C 90.148438 166.574219 89.773438 159.675781 89.851562 155.101562 C 89.925781 149.925781 90.449219 143.851562 90.148438 138.75 C 89.851562 134.175781 88.648438 128.324219 88.199219 125.925781 C 88.050781 125.023438 87.824219 124.050781 87.824219 123.976562 C 87.824219 123.976562 87.824219 123.523438 87.824219 123.375 C 87.824219 123.148438 87.675781 122.699219 87.75 122.699219 C 87.75 122.699219 87.824219 122.851562 87.824219 122.851562 C 87.898438 122.773438 87.824219 122.324219 87.898438 121.949219 C 87.898438 121.425781 87.898438 119.925781 87.898438 119.925781 C 87.898438 119.851562 88.273438 118.574219 88.5 117.898438 C 88.648438 117.226562 89.023438 115.949219 89.023438 115.949219 C 89.023438 115.949219 89.699219 114.75 90.074219 114.148438 C 90.375 113.550781 91.050781 112.425781 91.050781 112.351562 C 91.050781 112.351562 92.023438 111.375 92.476562 110.851562 C 92.925781 110.398438 93.824219 109.425781 93.898438 109.425781 C 93.898438 109.425781 94.125 109.351562 94.199219 109.199219 C 94.273438 108.976562 94.125 108.148438 94.125 108.148438 C 94.125 108.148438 94.273438 106.949219 94.351562 106.351562 C 94.425781 105.75 94.574219 104.550781 94.574219 104.550781 C 94.574219 104.550781 94.949219 103.425781 95.175781 102.898438 C 95.398438 102.300781 95.851562 101.175781 95.851562 101.175781 C 95.851562 101.175781 96.523438 100.199219 96.824219 99.675781 C 97.199219 99.148438 97.875 98.175781 97.875 98.175781 C 97.875 98.175781 98.773438 97.351562 99.226562 96.976562 C 99.675781 96.601562 100.574219 95.773438 100.574219 95.773438 C 100.648438 95.773438 101.699219 95.25 102.226562 94.949219 C 102.75 94.648438 103.800781 94.125 103.800781 94.125 C 103.800781 94.050781 105 93.824219 105.601562 93.675781 C 106.125 93.523438 107.324219 93.226562 107.324219 93.226562 C 107.324219 93.226562 108.523438 93.226562 109.125 93.226562 C 109.726562 93.226562 110.925781 93.226562 110.925781 93.226562 C 111 93.226562 112.125 93.523438 112.726562 93.675781 C 113.324219 93.824219 114.449219 94.050781 114.449219 94.050781 C 114.523438 94.050781 115.574219 94.648438 116.101562 94.949219 C 116.625 95.175781 117.675781 95.773438 117.675781 95.773438 C 117.675781 95.773438 118.648438 96.601562 119.023438 96.976562 C 119.398438 97.273438 119.625 97.574219 120 97.800781 C 120.375 98.023438 120.976562 98.25 121.425781 98.324219 C 121.875 98.398438 122.25 98.398438 122.625 98.398438 C 123.148438 98.398438 124.351562 98.476562 124.351562 98.476562 C 124.425781 98.476562 125.476562 98.851562 126 99 C 126.601562 99.148438 127.648438 99.523438 127.648438 99.523438 C 127.726562 99.523438 128.625 100.125 129.148438 100.425781 C 129.601562 100.726562 130.574219 101.25 130.648438 101.25 C 130.648438 101.324219 131.550781 102.226562 131.851562 102.523438 C 132 102.601562 132 102.75 132.148438 102.824219 C 132.375 102.898438 132.675781 102.75 132.976562 102.824219 C 133.726562 102.898438 135 103.199219 135.976562 103.574219 C 136.875 103.949219 138 104.625 138.601562 105.074219 C 139.050781 105.375 139.199219 105.75 139.574219 105.976562 C 140.101562 106.273438 141.300781 106.125 141.601562 106.574219 C 141.898438 106.949219 141.375 107.699219 141.523438 108.148438 C 141.675781 108.75 142.199219 109.050781 142.5 109.648438 C 142.949219 110.476562 143.324219 111.601562 143.550781 112.574219 C 143.773438 113.550781 143.851562 114.601562 143.851562 115.574219 C 143.851562 116.625 143.699219 117.601562 143.398438 118.574219 C 143.175781 119.550781 142.726562 120.601562 142.273438 121.425781 C 141.824219 122.175781 141 122.925781 140.773438 123.523438 C 140.699219 123.824219 140.925781 124.199219 140.773438 124.425781 C 140.476562 124.800781 139.351562 124.949219 138.898438 125.25 C 138.601562 125.476562 138.523438 125.625 138.148438 125.851562 C 137.550781 126.300781 136.351562 126.898438 135.449219 127.199219 C 134.699219 127.5 134.101562 127.425781 133.199219 127.726562 C 131.625 128.25 128.023438 128.699219 127.050781 130.425781 C 125.773438 132.601562 128.851562 138.300781 128.101562 140.925781 C 127.574219 142.800781 125.550781 143.324219 124.949219 145.199219 C 124.125 147.675781 125.175781 151.351562 125.175781 155.101562 C 125.101562 159.75 124.273438 165.675781 124.574219 171.148438 C 124.800781 176.773438 126.148438 182.773438 126.75 188.476562 C 127.351562 193.949219 128.398438 201.148438 128.023438 204.75 C 127.875 206.550781 127.125 207.148438 126.976562 208.875 C 126.675781 211.5 127.425781 219.074219 127.425781 219.074219 C 127.425781 219.148438 127.5 220.574219 127.5 221.324219 C 127.574219 222.074219 127.648438 223.574219 127.648438 223.574219 C 127.648438 223.574219 127.351562 225 127.199219 225.75 C 127.125 226.5 126.824219 227.925781 126.824219 227.925781 C 126.824219 228 126 229.726562 125.925781 230.023438 C 125.851562 230.023438 125.851562 230.023438 125.851562 230.101562 C 125.625 230.773438 122.851562 240.601562 123.375 242.175781 C 123.601562 242.699219 123.976562 242.699219 124.351562 243 C 124.800781 243.375 125.699219 243.75 126.074219 244.125 C 126.375 244.425781 126.449219 244.726562 126.75 244.949219 C 126.976562 245.175781 127.273438 245.324219 127.5 245.625 C 127.875 246.074219 128.25 246.824219 128.625 247.425781 C 129 247.949219 129.601562 248.550781 129.898438 249.074219 C 130.125 249.375 130.125 249.75 130.273438 250.050781 C 130.425781 250.351562 130.648438 250.574219 130.800781 250.949219 C 131.023438 251.476562 131.101562 252.300781 131.25 252.976562 C 131.476562 253.574219 131.851562 254.324219 131.925781 254.925781 C 132 255.300781 131.925781 255.601562 131.925781 255.976562 C 132 256.273438 132.148438 256.574219 132.226562 256.949219 C 132.226562 257.550781 132 258.375 132 259.050781 C 131.925781 259.726562 132.074219 260.550781 132 261.148438 C 131.925781 261.523438 131.773438 261.75 131.699219 262.125 C 131.625 262.5 131.699219 262.800781 131.625 263.175781 C 131.476562 263.699219 130.949219 264.449219 130.726562 265.050781 C 130.5 265.726562 130.351562 266.550781 130.125 267.074219 C 129.898438 267.375 129.675781 267.601562 129.449219 267.898438 C 129.300781 268.199219 129.226562 268.5 129.074219 268.800781 C 128.699219 269.324219 128.101562 269.851562 127.648438 270.375 C 127.199219 270.898438 126.75 271.800781 126.375 272.023438 C 126.226562 272.175781 126.074219 272.101562 125.925781 272.175781 C 125.625 272.398438 125.398438 272.925781 124.800781 273.375 C 123.75 274.273438 121.273438 275.699219 119.324219 276.375 C 117.449219 277.050781 114.523438 277.425781 113.25 277.425781 C 112.648438 277.425781 112.5 277.199219 111.976562 277.273438 C 110.851562 277.351562 108.976562 279.226562 107.023438 279 C 103.574219 278.625 96.898438 274.574219 93.75 270.449219 C 90.300781 266.023438 86.925781 253.199219 87.75 252.675781 C 88.425781 252.375 93.523438 260.625 94.199219 260.398438 C 94.5 260.25 93.75 258.074219 93.824219 257.398438 C 93.824219 257.023438 94.050781 257.023438 93.976562 256.648438 C 93.75 254.851562 86.773438 243 86.773438 243 M 116.773438 239.101562 C 117.226562 239.550781 117.300781 239.550781 117.300781 239.550781 C 117.300781 239.550781 116.925781 239.101562 116.851562 239.101562 C 116.851562 239.101562 116.773438 239.101562 116.773438 239.101562 " clip-rule="nonzero"/>
    </clipPath>
    <clipPath id="4ac0a4ee35">
      <path d="M 95.441406 89.59375 L 287.121094 89.59375 L 287.121094 154 L 95.441406 154 Z M 95.441406 89.59375 " clip-rule="nonzero"/>
    </clipPath>
    <clipPath id="1f78fa8e02">
      <path d="M 95.699219 111.75 C 95.699219 111.75 96 110.398438 96.074219 109.800781 C 96.226562 109.125 96.523438 107.851562 96.523438 107.773438 C 96.523438 107.773438 97.050781 106.574219 97.351562 105.976562 C 97.648438 105.375 98.175781 104.175781 98.175781 104.175781 C 98.25 104.101562 99.074219 103.125 99.449219 102.601562 C 99.824219 102.148438 100.648438 101.25 100.574219 101.175781 C 100.574219 101.175781 100.574219 101.175781 100.648438 101.175781 C 100.648438 101.175781 100.726562 101.023438 100.726562 101.023438 C 100.726562 101.023438 101.851562 100.199219 102.375 99.824219 C 102.898438 99.375 103.949219 98.625 103.949219 98.625 C 103.949219 98.550781 105.148438 98.101562 105.824219 97.800781 C 106.425781 97.5 107.625 96.976562 107.625 96.976562 C 107.699219 96.976562 108.976562 96.75 109.648438 96.675781 C 110.324219 96.523438 111.601562 96.375 111.601562 96.375 C 111.675781 96.375 112.800781 96.601562 113.550781 96.449219 C 114.523438 96.375 115.425781 95.625 117 95.25 C 120.375 94.351562 127.648438 92.699219 132.976562 92.550781 C 138.300781 92.324219 147.449219 93.976562 149.023438 94.125 C 149.324219 94.125 149.25 94.199219 149.550781 94.199219 C 150.449219 94.125 153.601562 93.226562 156.449219 92.773438 C 160.800781 92.175781 167.324219 91.648438 172.949219 91.273438 C 178.875 90.824219 185.324219 90.300781 191.324219 90.375 C 197.175781 90.449219 204.148438 90.898438 208.726562 91.648438 C 211.800781 92.101562 214.351562 93.300781 216.300781 93.449219 C 217.574219 93.601562 217.949219 93.300781 219.375 93.226562 C 222.675781 93.074219 231.375 92.550781 235.574219 92.699219 C 238.273438 92.773438 240.148438 93.449219 242.101562 93.300781 C 243.898438 93.148438 245.023438 92.175781 246.976562 91.949219 C 249.75 91.648438 254.25 92.925781 257.175781 92.398438 C 259.574219 92.023438 260.773438 90 263.324219 89.851562 C 267.449219 89.550781 275.625 90.824219 279.523438 94.050781 C 283.574219 97.425781 286.574219 104.699219 286.949219 110.101562 C 287.398438 115.273438 285.375 121.351562 282.523438 125.699219 C 279.601562 130.125 272.324219 133.800781 269.476562 136.273438 C 268.050781 137.550781 266.773438 138.449219 266.324219 139.351562 C 266.023438 139.800781 266.324219 140.101562 266.101562 140.625 C 265.726562 141.898438 264.449219 144.523438 263.25 146.175781 C 261.976562 147.824219 260.398438 149.398438 258.75 150.523438 C 257.023438 151.726562 254.476562 152.851562 253.125 153.226562 C 252.375 153.449219 251.699219 153.300781 251.324219 153.449219 C 251.175781 153.523438 251.25 153.675781 251.101562 153.75 C 250.726562 153.898438 249.675781 153.675781 249 153.75 C 248.25 153.824219 247.5 154.050781 246.898438 153.976562 C 246.523438 153.976562 246.226562 153.824219 245.851562 153.75 C 245.550781 153.75 245.25 153.824219 244.800781 153.824219 C 244.273438 153.75 243.523438 153.300781 242.851562 153.148438 C 242.175781 153 241.273438 152.925781 240.75 152.699219 C 240.375 152.550781 240.148438 152.324219 239.851562 152.175781 C 239.550781 152.023438 239.25 152.023438 238.875 151.875 C 238.351562 151.574219 237.75 150.976562 237.148438 150.601562 C 236.625 150.226562 235.800781 149.925781 235.351562 149.550781 C 235.050781 149.324219 234.976562 149.023438 234.675781 148.800781 C 234.449219 148.5 234.148438 148.425781 233.851562 148.125 C 233.476562 147.75 233.101562 147 232.648438 146.398438 C 232.199219 145.875 231.601562 145.351562 231.300781 144.824219 C 231.074219 144.523438 231.074219 144.148438 230.851562 143.851562 C 230.699219 143.550781 230.476562 143.398438 230.25 143.023438 C 230.023438 142.5 229.949219 141.675781 229.726562 141 C 229.5 140.324219 229.050781 139.648438 228.898438 139.050781 C 228.824219 138.675781 228.898438 138.375 228.824219 138 C 228.75 137.699219 228.601562 137.398438 228.523438 137.023438 C 228.449219 136.425781 228.601562 135.601562 228.601562 134.925781 C 228.601562 134.25 228.449219 133.425781 228.449219 132.824219 C 228.523438 132.449219 228.675781 132.148438 228.75 131.773438 C 228.824219 131.550781 228.976562 131.175781 228.824219 131.023438 C 228.226562 130.425781 223.5 130.800781 221.699219 131.324219 C 220.425781 131.699219 220.125 132.523438 218.699219 132.976562 C 215.550781 134.101562 208.050781 134.851562 202.800781 135.675781 C 197.476562 136.425781 191.625 137.398438 187.050781 137.773438 C 183.449219 138.074219 179.398438 137.550781 177.523438 138.074219 C 176.625 138.300781 176.625 138.824219 175.648438 139.050781 C 172.949219 139.875 164.625 140.398438 159.074219 140.175781 C 153.375 139.875 146.476562 139.574219 141.898438 137.398438 C 138.074219 135.675781 136.273438 130.726562 132.824219 129.523438 C 129.601562 128.324219 126.148438 130.125 122.023438 129.824219 C 116.324219 129.375 103.125 126.675781 102 126.148438 C 101.925781 126.074219 101.851562 126 101.851562 126 C 101.851562 126 100.949219 125.023438 100.425781 124.574219 C 99.976562 124.050781 99.074219 123.148438 99.074219 123.148438 C 99 123.074219 98.398438 121.949219 98.023438 121.351562 C 97.726562 120.824219 97.050781 119.699219 97.050781 119.625 C 96.976562 119.625 96.675781 118.351562 96.449219 117.675781 C 96.300781 117.074219 95.925781 115.800781 95.851562 115.800781 C 95.851562 115.726562 95.851562 114.449219 95.773438 113.773438 C 95.773438 113.101562 95.699219 111.75 95.699219 111.75 " clip-rule="nonzero"/>
    </clipPath>
    <clipPath id="14d832d0a0">
      <path d="M 238.402344 112.527344 L 283.824219 112.527344 L 283.824219 260.199219 L 238.402344 260.199219 Z M 238.402344 112.527344 " clip-rule="nonzero"/>
    </clipPath>
    <clipPath id="19768a8657">
      <path d="M 283.199219 125.324219 C 283.949219 158.773438 283.800781 170.101562 282.226562 182.773438 C 280.199219 198.824219 275.324219 227.699219 271.273438 236.851562 C 269.773438 240.300781 268.5 241.648438 266.550781 243.375 C 264.523438 245.023438 261.375 246.300781 259.273438 246.898438 C 257.773438 247.351562 256.800781 247.425781 255.226562 247.351562 C 253.050781 247.125 249.375 246.148438 247.425781 245.175781 C 246 244.5 245.101562 243.675781 244.125 242.773438 C 243.148438 241.875 242.25 241.050781 241.5 239.699219 C 240.449219 237.75 239.324219 235.199219 238.800781 232.050781 C 238.125 227.023438 239.101562 218.324219 239.699219 212.101562 C 240.226562 206.550781 240.898438 201.601562 241.875 196.351562 C 243 190.875 243.523438 184.648438 246.148438 179.851562 C 248.699219 175.199219 254.25 169.726562 257.324219 167.851562 C 258.898438 166.949219 259.875 166.875 261.523438 166.726562 C 263.851562 166.574219 267.375 166.648438 269.925781 167.625 C 272.550781 168.523438 275.324219 170.699219 276.976562 172.273438 C 278.175781 173.398438 278.773438 174.300781 279.449219 175.726562 C 280.425781 177.824219 281.476562 181.648438 281.625 183.898438 C 281.773438 185.550781 281.699219 186.601562 281.25 188.175781 C 280.574219 190.351562 279.226562 193.648438 277.425781 195.75 C 275.625 197.773438 271.199219 201.226562 270.523438 200.625 C 269.550781 199.800781 279.300781 179.699219 281.175781 180.074219 C 282.824219 180.449219 282.148438 192.074219 282.375 197.925781 C 282.601562 203.398438 282.898438 208.199219 282.375 214.125 C 281.773438 221.324219 276.375 233.699219 278.101562 237.976562 C 278.925781 240.148438 282.375 240.226562 283.050781 241.726562 C 283.574219 243 283.050781 244.5 282.523438 246.074219 C 281.773438 248.398438 279.898438 252 278.476562 253.875 C 277.425781 255.226562 276.601562 255.898438 275.175781 256.800781 C 273.074219 258.074219 269.773438 259.574219 266.925781 259.949219 C 264.148438 260.25 260.550781 259.574219 258.226562 258.898438 C 256.648438 258.375 255.675781 257.925781 254.324219 256.875 C 252.449219 255.375 249.824219 252.824219 248.476562 250.273438 C 247.125 247.800781 247.050781 241.949219 246.375 241.800781 C 246.148438 241.726562 245.851562 242.773438 245.625 242.699219 C 245.175781 242.625 244.726562 238.800781 244.726562 236.851562 C 244.726562 234.898438 245.101562 232.875 245.699219 231 C 246.300781 229.125 247.273438 227.324219 248.476562 225.75 C 249.675781 224.175781 251.175781 222.75 252.824219 221.699219 C 254.476562 220.574219 256.351562 219.675781 258.226562 219.226562 C 260.101562 218.699219 262.199219 218.476562 264.148438 218.550781 C 266.101562 218.699219 268.125 219.148438 269.925781 219.824219 C 271.726562 220.574219 273.523438 221.699219 275.023438 222.976562 C 276.523438 224.175781 277.875 225.824219 278.851562 227.476562 C 279.824219 229.125 280.648438 231.074219 281.023438 233.023438 C 281.476562 234.898438 281.550781 237 281.324219 238.949219 C 281.101562 240.898438 280.574219 242.925781 279.75 244.648438 C 278.925781 246.449219 277.726562 248.175781 276.375 249.601562 C 275.023438 251.023438 273.375 252.226562 271.648438 253.125 C 269.925781 254.101562 267.898438 254.699219 266.023438 255.074219 C 264.074219 255.375 261.976562 255.375 260.023438 255 C 258.148438 254.699219 256.125 254.023438 254.398438 253.125 C 252.675781 252.148438 251.023438 250.949219 249.675781 249.523438 C 248.398438 248.101562 247.199219 246.375 246.375 244.574219 C 245.550781 242.773438 245.023438 240.75 244.800781 238.800781 C 244.574219 236.925781 244.726562 234.824219 245.175781 232.875 C 245.550781 231 246.375 229.050781 247.351562 227.398438 C 248.398438 225.75 249.75 224.101562 251.25 222.898438 C 252.75 221.625 254.550781 220.5 256.351562 219.824219 C 258.148438 219.074219 260.175781 218.625 262.125 218.550781 C 264.074219 218.476562 266.175781 218.699219 268.050781 219.226562 C 269.925781 219.75 271.800781 220.648438 273.449219 221.699219 C 275.023438 222.824219 276.601562 224.25 277.726562 225.824219 C 278.925781 227.398438 279.675781 228.976562 280.5 231.074219 C 281.550781 233.925781 283.050781 238.351562 283.050781 241.726562 C 283.050781 244.726562 282.300781 247.726562 280.949219 250.199219 C 279.675781 252.75 277.5 255.148438 275.175781 256.800781 C 272.851562 258.449219 269.324219 259.5 266.925781 259.949219 C 265.273438 260.25 264.226562 260.25 262.5 259.949219 C 260.175781 259.5 256.351562 258.074219 254.324219 256.875 C 252.898438 255.976562 252 255 251.023438 253.949219 C 250.050781 252.824219 249.148438 251.851562 248.476562 250.273438 C 247.5 248.175781 246.824219 245.550781 246.375 242.175781 C 245.625 236.851562 245.851562 227.625 246 221.101562 C 246.074219 215.398438 246.824219 210.523438 246.976562 205.199219 C 247.125 199.800781 245.550781 194.398438 246.898438 188.773438 C 248.476562 182.023438 254.101562 170.550781 257.398438 167.851562 C 258.824219 166.726562 259.875 166.875 261.523438 166.726562 C 263.851562 166.574219 267.375 166.648438 269.925781 167.625 C 272.550781 168.523438 275.101562 170.25 276.976562 172.273438 C 278.851562 174.300781 280.351562 177.523438 281.023438 179.699219 C 281.550781 181.273438 281.625 182.476562 281.625 183.898438 C 281.699219 185.324219 281.699219 186.601562 281.25 188.175781 C 280.574219 190.351562 279.226562 193.648438 277.425781 195.75 C 275.625 197.773438 270.300781 200.023438 270.523438 200.625 C 270.75 201.148438 275.476562 198.675781 276.675781 199.949219 C 279.75 203.101562 274.199219 229.726562 271.273438 236.851562 C 269.925781 240.148438 268.125 241.875 266.550781 243.375 C 265.351562 244.425781 264.523438 244.949219 263.101562 245.625 C 261.074219 246.449219 257.398438 247.273438 255.226562 247.351562 C 253.648438 247.351562 252.449219 247.050781 251.175781 246.75 C 249.898438 246.375 248.699219 246 247.425781 245.175781 C 245.550781 243.976562 242.925781 241.875 241.5 239.699219 C 240.074219 237.449219 239.175781 234.226562 238.800781 232.050781 C 238.574219 230.476562 238.726562 229.949219 238.949219 227.925781 C 239.625 222.75 243.375 207.375 245.550781 199.425781 C 247.125 193.574219 249 189.523438 250.273438 184.351562 C 251.699219 178.800781 252.675781 174.226562 253.726562 167.101562 C 255.300781 155.851562 256.199219 129.074219 257.476562 123 C 257.773438 121.425781 258 120.976562 258.449219 120.074219 C 258.898438 119.101562 259.351562 118.273438 260.175781 117.449219 C 261.300781 116.175781 263.324219 114.449219 265.199219 113.699219 C 267 112.949219 269.324219 112.574219 271.351562 112.726562 C 273.375 112.949219 275.773438 113.925781 277.199219 114.75 C 278.25 115.351562 278.925781 116.023438 279.675781 116.773438 C 280.351562 117.523438 281.023438 118.199219 281.550781 119.324219 C 282.300781 120.824219 283.199219 125.324219 283.199219 125.324219 " clip-rule="nonzero"/>
    </clipPath>
    <clipPath id="128e6ea969">
      <path d="M 248.171875 198.222656 L 281.921875 198.222656 L 281.921875 282.210938 L 248.171875 282.210938 Z M 248.171875 198.222656 " clip-rule="nonzero"/>
    </clipPath>
    <clipPath id="6c65820a6b">
      <path d="M 274.726562 211.800781 C 279.601562 257.851562 281.851562 262.574219 281.773438 266.625 C 281.699219 269.476562 281.101562 271.726562 279.976562 273.824219 C 278.851562 275.925781 277.050781 278.023438 275.101562 279.375 C 273.148438 280.726562 270.523438 281.699219 268.199219 282 C 265.800781 282.226562 262.726562 281.699219 260.851562 281.101562 C 259.5 280.648438 258.675781 280.199219 257.550781 279.375 C 255.976562 278.101562 253.949219 276.375 252.675781 273.824219 C 250.574219 269.851562 248.773438 260.699219 248.625 256.648438 C 248.550781 254.476562 248.925781 253.199219 249.449219 251.625 C 249.976562 250.050781 250.800781 248.476562 251.773438 247.125 C 252.824219 245.773438 254.101562 244.574219 255.523438 243.601562 C 256.875 242.625 258.523438 241.875 260.101562 241.425781 C 261.75 240.976562 263.550781 240.824219 265.199219 240.898438 C 266.851562 240.976562 268.648438 241.351562 270.148438 241.949219 C 271.726562 242.550781 273.300781 243.523438 274.574219 244.574219 C 275.851562 245.699219 276.976562 247.050781 277.875 248.476562 C 278.699219 249.898438 279.375 251.550781 279.75 253.199219 C 280.125 254.851562 280.199219 256.648438 280.050781 258.300781 C 279.898438 259.949219 279.375 261.675781 278.699219 263.175781 C 278.023438 264.75 276.976562 266.175781 275.851562 267.449219 C 274.726562 268.648438 273.300781 269.699219 271.800781 270.523438 C 270.300781 271.273438 268.648438 271.875 266.925781 272.175781 C 265.273438 272.398438 263.550781 272.476562 261.824219 272.175781 C 260.175781 271.875 258.523438 271.351562 257.023438 270.523438 C 255.523438 269.773438 254.101562 268.726562 252.976562 267.449219 C 251.773438 266.25 250.800781 264.824219 250.125 263.25 C 249.375 261.75 248.925781 260.023438 248.699219 258.375 C 248.550781 256.726562 248.625 254.925781 249 253.273438 C 249.300781 251.625 249.976562 249.976562 250.875 248.550781 C 251.699219 247.050781 252.898438 245.699219 254.175781 244.648438 C 255.449219 243.523438 256.949219 242.625 258.523438 242.023438 C 260.101562 241.351562 261.824219 240.976562 263.476562 240.898438 C 265.125 240.824219 266.925781 240.976562 268.574219 241.425781 C 270.148438 241.875 271.800781 242.625 273.226562 243.523438 C 274.574219 244.5 275.851562 245.699219 276.898438 247.050781 C 277.949219 248.398438 278.625 249.523438 279.300781 251.550781 C 280.5 255.074219 281.699219 263.324219 281.773438 266.625 C 281.773438 268.273438 281.625 269.101562 281.324219 270.300781 C 281.023438 271.5 280.726562 272.625 279.976562 273.824219 C 278.925781 275.550781 277.050781 278.023438 275.101562 279.375 C 273.148438 280.726562 270.148438 281.625 268.199219 282 C 266.773438 282.226562 265.875 282.226562 264.449219 282 C 262.5 281.625 259.273438 280.425781 257.550781 279.375 C 256.351562 278.625 255.601562 278.023438 254.773438 276.898438 C 253.5 275.324219 251.925781 272.25 251.324219 270.300781 C 250.875 268.949219 250.574219 267.375 250.875 266.625 C 251.023438 266.175781 251.773438 266.324219 251.925781 265.800781 C 252.75 263.851562 249.898438 256.125 249.300781 249.824219 C 248.476562 240.898438 248.101562 224.699219 248.398438 217.125 C 248.550781 213.074219 248.773438 210.074219 249.300781 207.898438 C 249.601562 206.625 249.824219 206.023438 250.5 204.976562 C 251.398438 203.550781 253.050781 201.601562 254.773438 200.476562 C 256.425781 199.425781 258.976562 198.75 260.625 198.449219 C 261.824219 198.300781 262.574219 198.300781 263.773438 198.523438 C 265.425781 198.898438 267.824219 199.726562 269.476562 200.925781 C 271.125 202.125 272.550781 203.925781 273.449219 205.726562 C 274.351562 207.523438 274.726562 211.800781 274.726562 211.800781 " clip-rule="nonzero"/>
    </clipPath>
    <clipPath id="ae7b1d5f66">
      <path d="M 101.773438 251.171875 L 280 251.171875 L 280 288.207031 L 101.773438 288.207031 Z M 101.773438 251.171875 " clip-rule="nonzero"/>
    </clipPath>
    <clipPath id="4e0dd7c8b6">
      <path d="M 276.976562 272.550781 C 272.625 277.351562 266.324219 282.976562 261.226562 284.324219 C 256.125 285.675781 251.023438 282.976562 244.351562 283.050781 C 234.601562 283.273438 217.875 287.25 208.351562 287.101562 C 202.050781 286.949219 197.925781 284.699219 192.675781 284.699219 C 187.5 284.699219 182.398438 286.5 177.148438 287.101562 C 171.824219 287.625 166.574219 288.148438 161.101562 288.148438 C 155.476562 288.074219 149.625 286.949219 143.925781 286.800781 C 138.375 286.726562 133.050781 288.074219 127.273438 287.550781 C 120.824219 286.875 110.773438 285.226562 107.101562 282.75 C 105.148438 281.476562 104.550781 279.824219 103.726562 278.101562 C 102.898438 276.449219 102.300781 274.5 102 272.625 C 101.773438 270.75 101.773438 268.726562 102.148438 266.925781 C 102.523438 265.050781 103.199219 263.175781 104.101562 261.523438 C 105 259.875 106.273438 258.300781 107.699219 257.023438 C 109.125 255.75 110.773438 254.699219 112.5 253.949219 C 114.226562 253.199219 116.175781 252.675781 118.125 252.523438 C 120 252.375 121.949219 252.523438 123.824219 252.976562 C 125.625 253.425781 127.5 254.175781 129.074219 255.226562 C 130.648438 256.199219 132.226562 257.550781 133.351562 259.050781 C 134.550781 260.476562 135.601562 262.273438 136.199219 264 C 136.875 265.800781 137.25 267.75 137.324219 269.625 C 137.398438 271.574219 137.101562 273.523438 136.574219 275.324219 C 135.976562 277.125 135.148438 279 134.023438 280.5 C 132.898438 282.074219 131.476562 283.5 129.976562 284.550781 C 128.476562 285.675781 126.675781 286.574219 124.875 287.175781 C 123.074219 287.699219 121.050781 288 119.175781 287.925781 C 117.300781 287.851562 115.273438 287.550781 113.550781 286.875 C 111.75 286.199219 109.949219 285.226562 108.523438 284.023438 C 107.023438 282.898438 105.675781 281.398438 104.625 279.824219 C 103.648438 278.175781 102.824219 276.375 102.375 274.5 C 101.925781 272.699219 101.773438 270.675781 101.925781 268.800781 C 102.074219 266.925781 102.523438 264.976562 103.273438 263.25 C 104.023438 261.523438 105.074219 259.800781 106.351562 258.375 C 107.625 256.949219 109.199219 255.675781 110.773438 254.773438 C 112.425781 253.875 114.300781 253.125 116.175781 252.75 C 118.050781 252.449219 120.074219 252.375 121.949219 252.601562 C 123.824219 252.824219 125.699219 253.425781 127.425781 254.25 C 129.148438 255.074219 132.300781 257.023438 132.074219 257.625 C 131.699219 258.675781 115.574219 257.324219 115.5 256.273438 C 115.351562 255.226562 125.550781 251.851562 132.148438 251.324219 C 141.300781 250.5 155.699219 255.148438 165.601562 255.226562 C 173.550781 255.375 180.601562 252.75 187.125 253.273438 C 192.824219 253.726562 197.101562 256.574219 202.726562 257.175781 C 209.25 257.851562 217.648438 255.75 224.175781 256.5 C 229.726562 257.175781 234.226562 260.324219 239.398438 260.625 C 244.648438 261 251.324219 260.25 255.449219 258.523438 C 258.523438 257.175781 260.101562 253.726562 262.5 252.601562 C 264.449219 251.773438 266.851562 251.699219 268.5 251.773438 C 269.699219 251.773438 270.449219 252 271.5 252.449219 C 273 253.050781 275.25 254.324219 276.601562 255.75 C 277.949219 257.175781 279 259.199219 279.523438 261.074219 C 280.050781 262.949219 280.125 265.199219 279.675781 267.148438 C 279.226562 269.023438 276.976562 272.550781 276.976562 272.550781 " clip-rule="nonzero"/>
    </clipPath>
  </defs>
  <path fill="#ffffff" d="M 278.617188 267.914062 C 278.617188 273.808594 273.808594 278.617188 267.914062 278.617188 L 107.308594 278.617188 C 101.410156 278.617188 96.601562 273.808594 96.601562 267.914062 L 96.601562 107.308594 C 96.601562 101.410156 101.410156 96.601562 107.308594 96.601562 L 267.914062 96.601562 C 273.808594 96.601562 278.617188 101.410156 278.617188 107.308594 Z M 283.972656 85.894531 L 91.25 85.894531 C 88.300781 85.894531 85.894531 88.300781 85.894531 91.25 L 85.894531 283.972656 C 85.894531 286.921875 88.300781 289.324219 91.25 289.324219 L 283.972656 289.324219 C 286.921875 289.324219 289.324219 286.921875 289.324219 283.972656 L 289.324219 91.25 C 289.324219 88.300781 286.921875 85.894531 283.972656 85.894531 " fill-opacity="1" fill-rule="nonzero"/>
  <path fill="#ffffff" d="M 198.316406 176.902344 C 198.316406 173.953125 195.914062 171.550781 192.964844 171.550781 L 187.609375 171.550781 L 187.609375 182.257812 L 192.964844 182.257812 C 195.914062 182.257812 198.316406 179.851562 198.316406 176.902344 " fill-opacity="1" fill-rule="nonzero"/>
  <path fill="#ffffff" d="M 144.199219 160.84375 C 152.476562 160.84375 160.109375 164.734375 165.152344 171.527344 C 166.90625 173.914062 166.40625 177.28125 164.023438 179.035156 C 161.660156 180.792969 158.292969 180.292969 156.535156 177.90625 C 153.546875 173.871094 149.050781 171.550781 144.199219 171.550781 C 135.664062 171.550781 128.722656 178.742188 128.722656 187.609375 C 128.722656 196.476562 135.664062 203.671875 144.199219 203.671875 C 149.050781 203.671875 153.546875 201.347656 156.535156 197.3125 C 158.292969 194.949219 161.660156 194.425781 164.023438 196.183594 C 166.40625 197.941406 166.90625 201.308594 165.152344 203.691406 C 160.109375 210.488281 152.476562 214.378906 144.199219 214.378906 C 129.769531 214.378906 118.015625 202.375 118.015625 187.609375 C 118.015625 172.847656 129.769531 160.84375 144.199219 160.84375 Z M 176.902344 187.609375 L 176.902344 166.195312 C 176.902344 163.25 179.308594 160.84375 182.257812 160.84375 L 192.964844 160.84375 C 201.832031 160.84375 209.023438 168.035156 209.023438 176.902344 C 209.023438 185.769531 201.832031 192.964844 192.964844 192.964844 L 187.609375 192.964844 L 187.609375 209.023438 C 187.609375 211.972656 185.207031 214.378906 182.257812 214.378906 C 179.308594 214.378906 176.902344 211.972656 176.902344 209.023438 Z M 219.730469 166.195312 C 219.730469 163.25 222.136719 160.84375 225.085938 160.84375 C 228.03125 160.84375 230.4375 163.25 230.4375 166.195312 L 230.4375 195.640625 C 230.4375 200.074219 234.035156 203.671875 238.46875 203.671875 C 242.902344 203.671875 246.5 200.074219 246.5 195.640625 L 246.5 166.195312 C 246.5 163.25 248.902344 160.84375 251.851562 160.84375 C 254.800781 160.84375 257.207031 163.25 257.207031 166.195312 L 257.207031 195.640625 C 257.207031 205.972656 248.796875 214.378906 238.46875 214.378906 C 228.136719 214.378906 219.730469 205.972656 219.730469 195.640625 Z M 107.308594 267.933594 L 267.914062 267.914062 L 267.914062 107.308594 L 107.308594 107.308594 L 107.308594 267.933594 " fill-opacity="1" fill-rule="nonzero"/>
  <g clip-path="url(#ede279c462)">
    <path fill="#ffffff" d="M 316.09375 69.835938 C 316.09375 72.78125 313.6875 75.1875 310.738281 75.1875 C 307.792969 75.1875 305.386719 72.78125 305.386719 69.835938 L 305.386719 64.480469 C 305.386719 61.53125 307.792969 59.128906 310.738281 59.128906 C 313.6875 59.128906 316.09375 61.53125 316.09375 64.480469 Z M 316.09375 310.738281 C 316.09375 313.6875 313.6875 316.09375 310.738281 316.09375 C 307.792969 316.09375 305.386719 313.6875 305.386719 310.738281 L 305.386719 305.386719 C 305.386719 302.4375 307.792969 300.03125 310.738281 300.03125 C 313.6875 300.03125 316.09375 302.4375 316.09375 305.386719 Z M 300.03125 283.972656 C 300.03125 292.839844 292.839844 300.03125 283.972656 300.03125 L 91.25 300.03125 C 82.382812 300.03125 75.1875 292.839844 75.1875 283.972656 L 75.1875 91.25 C 75.1875 82.382812 82.382812 75.1875 91.25 75.1875 L 283.972656 75.1875 C 292.839844 75.1875 300.03125 82.382812 300.03125 91.25 Z M 69.835938 69.835938 C 69.835938 72.78125 67.429688 75.1875 64.480469 75.1875 C 61.53125 75.1875 59.128906 72.78125 59.128906 69.835938 L 59.128906 64.480469 C 59.128906 61.53125 61.53125 59.128906 64.480469 59.128906 C 67.429688 59.128906 69.835938 61.53125 69.835938 64.480469 Z M 69.835938 310.738281 C 69.835938 313.6875 67.429688 316.09375 64.480469 316.09375 C 61.53125 316.09375 59.128906 313.6875 59.128906 310.738281 L 59.128906 305.386719 C 59.128906 302.4375 61.53125 300.03125 64.480469 300.03125 C 67.429688 300.03125 69.835938 302.4375 69.835938 305.386719 Z M 337.507812 75.1875 C 340.457031 75.1875 342.859375 72.78125 342.859375 69.835938 C 342.859375 66.886719 340.457031 64.480469 337.507812 64.480469 L 326.800781 64.480469 L 326.800781 59.128906 C 326.800781 53.230469 321.992188 48.421875 316.09375 48.421875 L 316.09375 37.714844 C 316.09375 34.765625 313.6875 32.359375 310.738281 32.359375 C 307.792969 32.359375 305.386719 34.765625 305.386719 37.714844 L 305.386719 48.421875 L 289.324219 48.421875 L 289.324219 37.714844 C 289.324219 34.765625 286.921875 32.359375 283.972656 32.359375 C 281.023438 32.359375 278.617188 34.765625 278.617188 37.714844 L 278.617188 48.421875 L 262.558594 48.421875 L 262.558594 37.714844 C 262.558594 34.765625 260.152344 32.359375 257.207031 32.359375 C 254.257812 32.359375 251.851562 34.765625 251.851562 37.714844 L 251.851562 48.421875 L 235.792969 48.421875 L 235.792969 37.714844 C 235.792969 34.765625 233.386719 32.359375 230.4375 32.359375 C 227.488281 32.359375 225.085938 34.765625 225.085938 37.714844 L 225.085938 48.421875 L 209.023438 48.421875 L 209.023438 37.714844 C 209.023438 34.765625 206.621094 32.359375 203.671875 32.359375 C 200.722656 32.359375 198.316406 34.765625 198.316406 37.714844 L 198.316406 48.421875 L 182.257812 48.421875 L 182.257812 37.714844 C 182.257812 34.765625 179.851562 32.359375 176.902344 32.359375 C 173.953125 32.359375 171.550781 34.765625 171.550781 37.714844 L 171.550781 48.421875 L 155.488281 48.421875 L 155.488281 37.714844 C 155.488281 34.765625 153.085938 32.359375 150.136719 32.359375 C 147.1875 32.359375 144.78125 34.765625 144.78125 37.714844 L 144.78125 48.421875 L 128.722656 48.421875 L 128.722656 37.714844 C 128.722656 34.765625 126.316406 32.359375 123.367188 32.359375 C 120.421875 32.359375 118.015625 34.765625 118.015625 37.714844 L 118.015625 48.421875 L 101.957031 48.421875 L 101.957031 37.714844 C 101.957031 34.765625 99.550781 32.359375 96.601562 32.359375 C 93.652344 32.359375 91.25 34.765625 91.25 37.714844 L 91.25 48.421875 L 75.1875 48.421875 L 75.1875 37.714844 C 75.1875 34.765625 72.78125 32.359375 69.835938 32.359375 C 66.886719 32.359375 64.480469 34.765625 64.480469 37.714844 L 64.480469 48.421875 L 59.128906 48.421875 C 53.230469 48.421875 48.421875 53.230469 48.421875 59.128906 L 48.421875 64.480469 L 37.714844 64.480469 C 34.765625 64.480469 32.359375 66.886719 32.359375 69.835938 C 32.359375 72.78125 34.765625 75.1875 37.714844 75.1875 L 48.421875 75.1875 L 48.421875 91.25 L 37.714844 91.25 C 34.765625 91.25 32.359375 93.652344 32.359375 96.601562 C 32.359375 99.550781 34.765625 101.957031 37.714844 101.957031 L 48.421875 101.957031 L 48.421875 118.015625 L 37.714844 118.015625 C 34.765625 118.015625 32.359375 120.421875 32.359375 123.367188 C 32.359375 126.316406 34.765625 128.722656 37.714844 128.722656 L 48.421875 128.722656 L 48.421875 144.78125 L 37.714844 144.78125 C 34.765625 144.78125 32.359375 147.1875 32.359375 150.136719 C 32.359375 153.085938 34.765625 155.488281 37.714844 155.488281 L 48.421875 155.488281 L 48.421875 171.550781 L 37.714844 171.550781 C 34.765625 171.550781 32.359375 173.953125 32.359375 176.902344 C 32.359375 179.851562 34.765625 182.257812 37.714844 182.257812 L 48.421875 182.257812 L 48.421875 198.316406 L 37.714844 198.316406 C 34.765625 198.316406 32.359375 200.722656 32.359375 203.671875 C 32.359375 206.621094 34.765625 209.023438 37.714844 209.023438 L 48.421875 209.023438 L 48.421875 225.085938 L 37.714844 225.085938 C 34.765625 225.085938 32.359375 227.488281 32.359375 230.4375 C 32.359375 233.386719 34.765625 235.792969 37.714844 235.792969 L 48.421875 235.792969 L 48.421875 251.851562 L 37.714844 251.851562 C 34.765625 251.851562 32.359375 254.257812 32.359375 257.207031 C 32.359375 260.152344 34.765625 262.558594 37.714844 262.558594 L 48.421875 262.558594 L 48.421875 278.617188 L 37.714844 278.617188 C 34.765625 278.617188 32.359375 281.023438 32.359375 283.972656 C 32.359375 286.921875 34.765625 289.324219 37.714844 289.324219 L 48.421875 289.324219 L 48.421875 305.386719 L 37.714844 305.386719 C 34.765625 305.386719 32.359375 307.792969 32.359375 310.738281 C 32.359375 313.6875 34.765625 316.09375 37.714844 316.09375 L 48.421875 316.09375 C 48.421875 321.992188 53.230469 326.800781 59.128906 326.800781 L 64.480469 326.800781 L 64.480469 337.507812 C 64.480469 340.457031 66.886719 342.859375 69.835938 342.859375 C 72.78125 342.859375 75.1875 340.457031 75.1875 337.507812 L 75.1875 326.800781 L 91.25 326.800781 L 91.25 337.507812 C 91.25 340.457031 93.652344 342.859375 96.601562 342.859375 C 99.550781 342.859375 101.957031 340.457031 101.957031 337.507812 L 101.957031 326.800781 L 118.015625 326.800781 L 118.015625 337.507812 C 118.015625 340.457031 120.421875 342.859375 123.367188 342.859375 C 126.316406 342.859375 128.722656 340.457031 128.722656 337.507812 L 128.722656 326.800781 L 144.78125 326.800781 L 144.78125 337.507812 C 144.78125 340.457031 147.1875 342.859375 150.136719 342.859375 C 153.085938 342.859375 155.488281 340.457031 155.488281 337.507812 L 155.488281 326.800781 L 171.550781 326.800781 L 171.550781 337.507812 C 171.550781 340.457031 173.953125 342.859375 176.902344 342.859375 C 179.851562 342.859375 182.257812 340.457031 182.257812 337.507812 L 182.257812 326.800781 L 198.316406 326.800781 L 198.316406 337.507812 C 198.316406 340.457031 200.722656 342.859375 203.671875 342.859375 C 206.621094 342.859375 209.023438 340.457031 209.023438 337.507812 L 209.023438 326.800781 L 225.085938 326.800781 L 225.085938 337.507812 C 225.085938 340.457031 227.488281 342.859375 230.4375 342.859375 C 233.386719 342.859375 235.792969 340.457031 235.792969 337.507812 L 235.792969 326.800781 L 251.851562 326.800781 L 251.851562 337.507812 C 251.851562 340.457031 254.257812 342.859375 257.207031 342.859375 C 260.152344 342.859375 262.558594 340.457031 262.558594 337.507812 L 262.558594 326.800781 L 278.617188 326.800781 L 278.617188 337.507812 C 278.617188 340.457031 281.023438 342.859375 283.972656 342.859375 C 286.921875 342.859375 289.324219 340.457031 289.324219 337.507812 L 289.324219 326.800781 L 305.386719 326.800781 L 305.386719 337.507812 C 305.386719 340.457031 307.792969 342.859375 310.738281 342.859375 C 313.6875 342.859375 316.09375 340.457031 316.09375 337.507812 L 316.09375 326.800781 C 321.992188 326.800781 326.800781 321.992188 326.800781 316.09375 L 337.507812 316.09375 C 340.457031 316.09375 342.859375 313.6875 342.859375 310.738281 C 342.859375 307.792969 340.457031 305.386719 337.507812 305.386719 L 326.800781 305.386719 L 326.800781 289.324219 L 337.507812 289.324219 C 340.457031 289.324219 342.859375 286.921875 342.859375 283.972656 C 342.859375 281.023438 340.457031 278.617188 337.507812 278.617188 L 326.800781 278.617188 L 326.800781 262.558594 L 337.507812 262.558594 C 340.457031 262.558594 342.859375 260.152344 342.859375 257.207031 C 342.859375 254.257812 340.457031 251.851562 337.507812 251.851562 L 326.800781 251.851562 L 326.800781 235.792969 L 337.507812 235.792969 C 340.457031 235.792969 342.859375 233.386719 342.859375 230.4375 C 342.859375 227.488281 340.457031 225.085938 337.507812 225.085938 L 326.800781 225.085938 L 326.800781 209.023438 L 337.507812 209.023438 C 340.457031 209.023438 342.859375 206.621094 342.859375 203.671875 C 342.859375 200.722656 340.457031 198.316406 337.507812 198.316406 L 326.800781 198.316406 L 326.800781 182.257812 L 337.507812 182.257812 C 340.457031 182.257812 342.859375 179.851562 342.859375 176.902344 C 342.859375 173.953125 340.457031 171.550781 337.507812 171.550781 L 326.800781 171.550781 L 326.800781 155.488281 L 337.507812 155.488281 C 340.457031 155.488281 342.859375 153.085938 342.859375 150.136719 C 342.859375 147.1875 340.457031 144.78125 337.507812 144.78125 L 326.800781 144.78125 L 326.800781 128.722656 L 337.507812 128.722656 C 340.457031 128.722656 342.859375 126.316406 342.859375 123.367188 C 342.859375 120.421875 340.457031 118.015625 337.507812 118.015625 L 326.800781 118.015625 L 326.800781 101.957031 L 337.507812 101.957031 C 340.457031 101.957031 342.859375 99.550781 342.859375 96.601562 C 342.859375 93.652344 340.457031 91.25 337.507812 91.25 L 326.800781 91.25 L 326.800781 75.1875 L 337.507812 75.1875 " fill-opacity="1" fill-rule="nonzero"/>
  </g>
  <g clip-path="url(#97dc71faa5)">
    <g clip-path="url(#ac79288a9d)">
      <path fill="#1e1e1e" d="M 133.425781 166.949219 L 164.382812 166.949219 L 164.382812 197.550781 L 133.425781 197.550781 Z M 133.425781 166.949219 " fill-opacity="1" fill-rule="nonzero"/>
    </g>
  </g>
  <g clip-path="url(#9c6d82db01)">
    <g clip-path="url(#128d224adc)">
      <path fill="#1e1e1e" d="M 142.199219 249.449219 L 151.265625 249.449219 L 151.265625 258.375 L 142.199219 258.375 Z M 142.199219 249.449219 " fill-opacity="1" fill-rule="nonzero"/>
    </g>
  </g>
  <g clip-path="url(#bbddb9e1a3)">
    <g clip-path="url(#986ee436d7)">
      <path fill="#ffffff" d="M 134.25 168.523438 L 176.324219 168.523438 L 176.324219 232.625 L 134.25 232.625 Z M 134.25 168.523438 " fill-opacity="1" fill-rule="nonzero"/>
    </g>
  </g>
  <g clip-path="url(#6f97c94b45)">
    <g clip-path="url(#13fc28d287)">
      <path fill="#ffffff" d="M 111.375 137.925781 L 267.351562 137.925781 L 267.351562 234.375 L 111.375 234.375 Z M 111.375 137.925781 " fill-opacity="1" fill-rule="nonzero"/>
    </g>
  </g>
  <g clip-path="url(#a40d572a01)">
    <g clip-path="url(#c85d69dadf)">
      <path fill="#ffffff" d="M 83.773438 90.226562 L 146.851562 90.226562 L 146.851562 282.160156 L 83.773438 282.160156 Z M 83.773438 90.226562 " fill-opacity="1" fill-rule="nonzero"/>
    </g>
  </g>
  <g clip-path="url(#4ac0a4ee35)">
    <g clip-path="url(#1f78fa8e02)">
      <path fill="#ffffff" d="M 92.699219 86.851562 L 290.136719 86.851562 L 290.136719 157.050781 L 92.699219 157.050781 Z M 92.699219 86.851562 " fill-opacity="1" fill-rule="nonzero"/>
    </g>
  </g>
  <g clip-path="url(#14d832d0a0)">
    <g clip-path="url(#19768a8657)">
      <path fill="#ffffff" d="M 235.800781 109.726562 L 287.023438 109.726562 L 287.023438 263 L 235.800781 263 Z M 235.800781 109.726562 " fill-opacity="1" fill-rule="nonzero"/>
    </g>
  </g>
  <g clip-path="url(#128e6ea969)">
    <g clip-path="url(#6c65820a6b)">
      <path fill="#ffffff" d="M 245.398438 195.449219 L 284.851562 195.449219 L 284.851562 284.984375 L 245.398438 284.984375 Z M 245.398438 195.449219 " fill-opacity="1" fill-rule="nonzero"/>
    </g>
  </g>
  <g clip-path="url(#ae7b1d5f66)">
    <g clip-path="url(#4e0dd7c8b6)">
      <path fill="#ffffff" d="M 98.925781 248.324219 L 282.757812 248.324219 L 282.757812 291.226562 L 98.925781 291.226562 Z M 98.925781 248.324219 " fill-opacity="1" fill-rule="nonzero"/>
    </g>
  </g>
  <g fill="#040606" fill-opacity="1">
    <g transform="translate(113.425432, 216.76127)">
      <g>
        <path d="M 12.609375 0 L 12.609375 -12.609375 L 63.078125 -12.609375 L 63.078125 0 Z M 0 -12.609375 L 0 -100.921875 L 12.609375 -100.921875 L 12.609375 -12.609375 Z M 12.609375 -100.921875 L 12.609375 -113.53125 L 63.078125 -113.53125 L 63.078125 -100.921875 Z M 12.609375 -100.921875 "/>
      </g>
    </g>
  </g>
  <g fill="#040606" fill-opacity="1">
    <g transform="translate(197.950426, 263.683107)">
      <g>
        <path d="M 12.609375 0 L 12.609375 -12.609375 L 63.078125 -12.609375 L 63.078125 0 Z M 0 -12.609375 L 0 -100.921875 L 12.609375 -100.921875 L 12.609375 -12.609375 Z M 12.609375 -100.921875 L 12.609375 -113.53125 L 63.078125 -113.53125 L 63.078125 -100.921875 Z M 12.609375 -100.921875 "/>
      </g>
    </g>
  </g>
</svg>
